HIERARCHY
ROOT joint_Root
{
	OFFSET 0.0 0.0 0.0
	CHANNELS 6 Xposition Yposition Zposition Zrotation Xrotation Yrotation 
	JOINT Hips
	{
		OFFSET -17.1583 93.1646 452.98
		CHANNELS 6 Xposition Yposition Zposition Zrotation Xrotation Yrotation 
		JOINT Spine
		{
			OFFSET 15.7357 0.0 0.0
			CHANNELS 6 Xposition Yposition Zposition Zrotation Xrotation Yrotation 
			JOINT Chest
			{
				OFFSET 8.98455 -0.406207 0.0
				CHANNELS 6 Xposition Yposition Zposition Zrotation Xrotation Yrotation 
				JOINT Neck
				{
					OFFSET 16.3773 0.0 0.0
					CHANNELS 6 Xposition Yposition Zposition Zrotation Xrotation Yrotation 
					JOINT Head
					{
						OFFSET 6.45672 0.0 0.0
						CHANNELS 6 Xposition Yposition Zposition Zrotation Xrotation Yrotation 
						End Site
						{
							OFFSET 0.0 0.0 0.0
						}
					}
				}
				JOINT Shoulder_L
				{
					OFFSET 12.9942 -0.242716 4.98039
					CHANNELS 6 Xposition Yposition Zposition Zrotation Xrotation Yrotation 
					JOINT UpperArm_L
					{
						OFFSET 5.34809 0.0 0.0
						CHANNELS 6 Xposition Yposition Zposition Zrotation Xrotation Yrotation 
						JOINT LowerArm_L
						{
							OFFSET 24.3286 1.87007e-05 0.0
							CHANNELS 6 Xposition Yposition Zposition Zrotation Xrotation Yrotation 
							JOINT Hand_L
							{
								OFFSET 22.2916 0.0 0.0
								CHANNELS 6 Xposition Yposition Zposition Zrotation Xrotation Yrotation 
								End Site
								{
									OFFSET 0.0 0.0 0.0
								}
							}
						}
					}
				}
				JOINT Shoulder_R
				{
					OFFSET 12.9945 -0.242716 -4.98039
					CHANNELS 6 Xposition Yposition Zposition Zrotation Xrotation Yrotation 
					JOINT UpperArm_R
					{
						OFFSET -5.34813 0.0 0.0
						CHANNELS 6 Xposition Yposition Zposition Zrotation Xrotation Yrotation 
						JOINT LowerArm_R
						{
							OFFSET -24.3289 0.000322201 0.0
							CHANNELS 6 Xposition Yposition Zposition Zrotation Xrotation Yrotation 
							JOINT Hand_R
							{
								OFFSET -22.2915 -0.000108084 0.0
								CHANNELS 6 Xposition Yposition Zposition Zrotation Xrotation Yrotation 
								End Site
								{
									OFFSET 0.0 0.0 0.0
								}
							}
						}
					}
				}
			}
		}
		JOINT UpperLeg_L
		{
			OFFSET -2.19248 -6.46944 0.0
			CHANNELS 6 Xposition Yposition Zposition Zrotation Xrotation Yrotation 
			JOINT LowerLeg_L
			{
				OFFSET 39.0811 0.0 -1.23785e-05
				CHANNELS 6 Xposition Yposition Zposition Zrotation Xrotation Yrotation 
				JOINT Foot_L
				{
					OFFSET 40.9854 0.0 -1.26872e-05
					CHANNELS 6 Xposition Yposition Zposition Zrotation Xrotation Yrotation 
					JOINT Toes_L
					{
						OFFSET 11.7543 0.0 0.0
						CHANNELS 6 Xposition Yposition Zposition Zrotation Xrotation Yrotation 
						End Site
						{
							OFFSET 0.0 0.0 0.0
						}
					}
				}
			}
		}
		JOINT UpperLeg_R
		{
			OFFSET -2.19251 6.46944 0.0
			CHANNELS 6 Xposition Yposition Zposition Zrotation Xrotation Yrotation 
			JOINT LowerLeg_R
			{
				OFFSET -39.0811 -0.00228153 -0.0401928
				CHANNELS 6 Xposition Yposition Zposition Zrotation Xrotation Yrotation 
				JOINT Foot_R
				{
					OFFSET -40.9854 0.0 0.0
					CHANNELS 6 Xposition Yposition Zposition Zrotation Xrotation Yrotation 
					JOINT Toes_R
					{
						OFFSET -11.7543 0.0 0.0
						CHANNELS 6 Xposition Yposition Zposition Zrotation Xrotation Yrotation 
						End Site
						{
							OFFSET 0.0 0.0 0.0
						}
					}
				}
			}
		}
	}
}
MOTION
Frames:	9
Frame Time:	0.0333333
0.000000 0.000000 0.000000 0.000000 0.000000 -0.000000 2.501030 95.295200 -34.793100 87.068500 -0.118503 -16.975500 15.735700 0.000005 -0.000001 31.999700 84.385800 -28.855900 8.984550 -0.406207 -0.000000 -1.544840 -9.775300 6.165690 16.377300 -0.000001 -0.000001 -7.305550 6.590010 -2.412420 6.456720 -0.000001 -0.000000 4.124340 12.927000 -0.598853 12.994200 -0.242716 4.980390 -90.827000 3.534280 -76.821800 5.348090 -0.000007 -0.000001 -68.047800 14.906000 -4.948880 24.328600 0.000019 0.000005 42.457600 -4.791450 -95.216100 22.291600 -0.000001 0.000005 42.628400 5.267390 0.969094 12.994500 -0.242716 -4.980390 90.089500 -0.323284 -74.518300 -5.348130 -0.000001 -0.000004 -48.772200 -14.205600 27.373200 -24.328900 0.000322 -0.000009 -0.001079 34.983500 0.000181 -22.291500 -0.000108 -0.000004 2.020850 3.911740 25.466400 -2.192480 -6.469440 -0.000000 -176.546000 -10.833900 6.544150 39.081100 -0.000007 -0.000012 0.055859 -0.120500 24.870700 40.985400 -0.000006 -0.000013 -4.732480 7.014090 -36.626100 11.754300 -0.000000 0.000003 0.002129 0.051990 -14.467900 -2.192510 6.469440 -0.000001 -176.961000 -5.148500 135.786000 -39.081100 -0.002282 -0.040193 0.003511 -0.000399 26.924800 -40.985400 0.000008 0.000006 -11.144700 -7.433400 -72.105400 -11.754300 -0.000006 -0.000006 0.000141 0.165255 -9.870770
0.000000 0.000000 0.000000 0.000000 0.000000 -0.000000 2.872680 93.961000 -23.879800 88.833000 -0.984957 -14.810700 15.735700 0.000005 -0.000001 36.431600 84.445600 -33.906800 8.984550 -0.406207 -0.000000 -0.962300 -9.128160 4.979130 16.377300 -0.000001 -0.000001 -6.492620 6.432000 -2.964160 6.456720 -0.000001 -0.000000 4.830040 12.358300 -1.613850 12.994200 -0.242716 4.980390 -90.765800 3.253630 -76.748100 5.348090 -0.000007 -0.000001 -70.204600 12.584600 -2.772240 24.328600 0.000019 0.000005 37.605300 0.110444 -89.855100 22.291600 -0.000001 0.000005 32.765300 5.291440 0.309210 12.994500 -0.242716 -4.980390 90.091000 -0.325617 -74.386300 -5.348130 -0.000001 -0.000004 -48.550600 -14.699600 25.183800 -24.328900 0.000322 -0.000009 -0.001099 33.232400 0.000169 -22.291500 -0.000108 -0.000004 4.901950 3.999180 24.239500 -2.192480 -6.469440 -0.000000 -179.453000 -7.589890 7.092330 39.081100 -0.000007 -0.000012 0.115069 -0.145942 38.253900 40.985400 -0.000006 -0.000013 -8.157920 4.811020 -34.499300 11.754300 -0.000000 0.000003 0.002238 0.057279 -14.253500 -2.192510 6.469440 -0.000001 179.956000 -6.500520 141.030000 -39.081100 -0.002282 -0.040193 -0.006025 0.026533 19.406400 -40.985400 0.000008 0.000006 -11.663900 -6.659190 -76.042100 -11.754300 -0.000006 -0.000006 0.000283 0.162769 -9.971710
0.000000 0.000000 0.000000 0.000000 0.000000 -0.000000 2.960030 91.603700 -12.948400 88.973100 -2.634540 -12.413600 15.735700 0.000005 -0.000001 48.372400 84.773600 -45.874500 8.984550 -0.406207 -0.000000 0.213202 -7.106370 5.010850 16.377300 -0.000001 -0.000001 -6.154940 6.250840 -3.392920 6.456720 -0.000001 -0.000000 5.450930 11.061700 -3.687090 12.994200 -0.242716 4.980390 -90.998300 4.006160 -75.995000 5.348090 -0.000007 -0.000001 -71.266200 10.587600 -0.163690 24.328600 0.000019 0.000005 27.628500 5.160550 -80.247200 22.291600 -0.000001 0.000005 18.618100 5.264620 1.048780 12.994500 -0.242716 -4.980390 90.030700 -0.109015 -74.261400 -5.348130 -0.000001 -0.000004 -49.396300 -14.693300 20.807600 -24.328900 0.000322 -0.000009 -0.001055 27.914600 0.000136 -22.291500 -0.000108 -0.000004 8.481530 4.205940 21.224600 -2.192480 -6.469440 -0.000000 179.559000 -7.334800 5.907210 39.081100 -0.000007 -0.000012 0.216053 -0.161966 53.142100 40.985400 -0.000006 -0.000013 -9.277710 7.016410 -32.785600 11.754300 -0.000000 0.000003 0.002248 0.057808 -14.232000 -2.192510 6.469440 -0.000001 -179.513000 -6.678600 144.742000 -39.081100 -0.002282 -0.040193 -0.014840 0.047622 20.872700 -40.985400 0.000008 0.000006 -11.976500 -6.278240 -79.393500 -11.754300 -0.000006 -0.000006 0.000621 0.156458 -10.227900
0.000000 0.000000 0.000000 0.000000 0.000000 -0.000000 2.511660 88.682300 -3.372120 86.171100 -4.133670 -13.920900 15.735700 0.000005 -0.000001 60.583100 85.945300 -57.002900 8.984550 -0.406207 -0.000000 -0.558851 -4.241990 7.138720 16.377300 -0.000001 -0.000001 -6.591370 5.996150 -3.842410 6.456720 -0.000001 -0.000000 5.704180 9.426730 -5.590890 12.994200 -0.242716 4.980390 -91.691500 6.220940 -74.756000 5.348090 -0.000007 -0.000001 -69.895100 8.241670 2.477570 24.328600 0.000019 0.000005 19.468800 8.692480 -66.852100 22.291600 -0.000001 0.000005 5.285620 5.208580 2.503150 12.994500 -0.242716 -4.980390 89.689400 1.095760 -74.175300 -5.348130 -0.000001 -0.000004 -50.388600 -13.166900 14.152200 -24.328900 0.000322 -0.000009 -0.001089 20.862900 0.000096 -22.291500 -0.000108 -0.000004 12.608700 4.476630 16.986100 -2.192480 -6.469440 -0.000000 -177.091000 -10.090000 -3.498860 39.081100 -0.000007 -0.000012 0.497816 -0.156243 72.575000 40.985400 -0.000006 -0.000013 -9.583890 5.067730 -34.170200 11.754300 -0.000000 0.000003 0.002331 0.062788 -14.030100 -2.192510 6.469440 -0.000001 -173.480000 -5.466440 138.182000 -39.081100 -0.002282 -0.040193 0.280811 -0.375640 36.457500 -40.985400 0.000008 0.000006 1.309580 -7.465620 -67.661400 -11.754300 -0.000006 -0.000006 -0.004880 0.227963 -7.320340
0.000000 0.000000 0.000000 0.000000 0.000000 -0.000000 2.119690 85.361300 6.148870 84.399900 -4.634850 -12.096300 15.735700 0.000005 -0.000001 78.694700 85.327900 -74.562200 8.984550 -0.406207 -0.000000 1.485520 -2.056950 8.285230 16.377300 -0.000001 -0.000001 -7.514410 5.825450 -3.954590 6.456720 -0.000001 -0.000000 4.109590 7.911570 -6.812010 12.994200 -0.242716 4.980390 -92.338400 8.258400 -74.129800 5.348090 -0.000007 -0.000001 -66.899500 3.821310 4.523100 24.328600 0.000019 0.000005 18.159600 15.054900 -51.625300 22.291600 -0.000001 0.000005 -2.850420 5.186440 3.056990 12.994500 -0.242716 -4.980390 89.237900 2.770110 -74.610900 -5.348130 -0.000001 -0.000004 -51.932400 -12.362300 6.412120 -24.328900 0.000322 -0.000009 0.014590 15.907200 -0.057467 -22.291500 -0.000108 -0.000004 13.023200 4.750980 12.229100 -2.192480 -6.469440 -0.000000 -174.276000 -10.785700 -11.947900 39.081100 -0.000007 -0.000012 0.799502 0.015477 91.108300 40.985400 -0.000006 -0.000013 -10.651500 -2.227740 -35.588100 11.754300 -0.000000 0.000003 0.002342 0.063576 -13.998200 -2.192510 6.469440 -0.000001 -171.080000 -3.285030 138.757000 -39.081100 -0.002282 -0.040193 0.069824 -0.051869 52.082000 -40.985400 0.000008 0.000006 -1.601620 -3.539820 -78.575800 -11.754300 -0.000006 -0.000006 -0.007800 0.254056 -6.255930
0.000000 0.000000 0.000000 0.000000 0.000000 -0.000000 1.591540 83.118300 14.952500 82.459900 -4.949610 -11.344300 15.735700 0.000005 -0.000001 88.966400 84.393100 -84.289500 8.984550 -0.406207 -0.000000 3.478660 -0.376347 9.355030 16.377300 -0.000001 -0.000001 -9.346550 6.283220 -3.763910 6.456720 -0.000001 -0.000000 2.755530 6.831190 -7.352170 12.994200 -0.242716 4.980390 -92.793000 9.084480 -72.829700 5.348090 -0.000007 -0.000001 -64.111200 -0.025262 5.117600 24.328600 0.000019 0.000005 15.061500 24.713200 -32.768300 22.291600 -0.000001 0.000005 0.539926 5.113850 4.793230 12.994500 -0.242716 -4.980390 89.245900 3.129700 -76.445000 -5.348130 -0.000001 -0.000004 -55.327600 -9.714020 -0.019340 -24.328900 0.000322 -0.000009 2.380020 11.832700 -11.463900 -22.291500 -0.000108 -0.000004 6.764840 4.978140 7.778570 -2.192480 -6.469440 -0.000000 -172.352000 -10.432600 -24.924500 39.081100 -0.000007 -0.000012 0.698754 0.199989 105.970000 40.985400 -0.000006 -0.000013 -6.644190 -2.881270 -35.578000 11.754300 -0.000000 0.000003 0.002295 0.060497 -14.123000 -2.192510 6.469440 -0.000001 -169.091000 -2.606950 143.395000 -39.081100 -0.002282 -0.040193 -0.017964 0.012991 58.467800 -40.985400 0.000008 0.000006 -2.803290 -1.689850 -87.108200 -11.754300 -0.000006 -0.000006 -0.004948 0.228631 -7.293100
0.000000 0.000000 0.000000 0.000000 0.000000 -0.000000 1.349990 82.701800 24.293300 82.880200 -4.809010 -10.538000 15.735700 0.000005 -0.000001 95.780300 84.135500 -91.563200 8.984550 -0.406207 -0.000000 3.879610 1.037090 8.389740 16.377300 -0.000001 -0.000001 -9.628760 5.564910 -2.847240 6.456720 -0.000001 -0.000000 3.234570 6.006260 -6.191060 12.994200 -0.242716 4.980390 -92.665200 8.470340 -72.462300 5.348090 -0.000007 -0.000001 -60.695000 -6.876580 8.441490 24.328600 0.000019 0.000005 8.886190 32.970600 -16.029000 22.291600 -0.000001 0.000005 4.095280 4.877800 9.817910 12.994500 -0.242716 -4.980390 89.219200 3.334750 -76.813500 -5.348130 -0.000001 -0.000004 -56.740400 -2.295050 -3.078500 -24.328900 0.000322 -0.000009 2.838450 5.195650 -28.710300 -22.291500 -0.000108 -0.000004 1.667080 5.251830 1.384420 -2.192480 -6.469440 -0.000000 -173.102000 -8.642390 -36.541000 39.081100 -0.000007 -0.000012 0.431167 0.179911 112.647000 40.985400 -0.000006 -0.000013 -3.842310 -0.463123 -40.572300 11.754300 -0.000000 0.000003 0.002158 0.053283 -14.415500 -2.192510 6.469440 -0.000001 -169.900000 -2.509830 152.154000 -39.081100 -0.002282 -0.040193 -0.012812 0.010308 57.252100 -40.985400 0.000008 0.000006 -3.958000 -1.006880 -92.193800 -11.754300 -0.000006 -0.000006 -0.001817 0.194065 -8.700130
0.000000 0.000000 0.000000 0.000000 0.000000 -0.000000 1.895040 84.250900 34.196600 85.650500 -5.268840 -11.216700 15.735700 0.000005 -0.000001 103.873000 84.545600 -101.185000 8.984550 -0.406207 -0.000000 2.774190 2.496200 5.310280 16.377300 -0.000001 -0.000001 -9.300790 4.876720 -2.135440 6.456720 -0.000001 -0.000000 3.864910 4.969240 -2.953360 12.994200 -0.242716 4.980390 -92.411300 7.556740 -72.244600 5.348090 -0.000007 -0.000001 -53.301700 -17.583300 14.025000 24.328600 0.000019 0.000005 2.930960 36.476700 -4.922220 22.291600 -0.000001 0.000005 3.510730 4.478080 16.961200 12.994500 -0.242716 -4.980390 89.172900 3.567160 -76.937200 -5.348130 -0.000001 -0.000004 -56.707000 4.827220 -4.252360 -24.328900 0.000322 -0.000009 -0.648987 -0.595288 -47.409300 -22.291500 -0.000108 -0.000004 5.135880 5.435510 -4.128050 -2.192480 -6.469440 -0.000000 -177.298000 -6.720970 -45.977300 39.081100 -0.000007 -0.000012 0.278045 0.104053 110.515000 40.985400 -0.000006 -0.000013 -4.172310 -0.850473 -49.341600 11.754300 -0.000000 0.000003 0.001941 0.044536 -14.770200 -2.192510 6.469440 -0.000001 -174.213000 -1.460400 161.761000 -39.081100 -0.002282 -0.040193 -0.027444 0.025879 49.863200 -40.985400 0.000008 0.000006 -5.243230 1.597640 -90.222900 -11.754300 -0.000006 -0.000006 0.002259 0.109291 -12.141300
0.000000 0.000000 0.000000 0.000000 0.000000 -0.000000 2.886330 87.070500 44.690700 89.194700 -6.334970 -12.497700 15.735700 0.000005 -0.000001 114.810000 85.000000 -113.938000 8.984550 -0.406207 -0.000000 1.284080 4.144920 1.696390 16.377300 -0.000001 -0.000001 -8.859640 4.149580 -1.361930 6.456720 -0.000001 -0.000000 4.172060 3.720870 -0.687287 12.994200 -0.242716 4.980390 -92.013600 6.150340 -71.832600 5.348090 -0.000007 -0.000001 -46.217800 -20.867100 20.533300 24.328600 0.000019 0.000005 0.698610 32.281600 -1.307780 22.291600 -0.000001 0.000005 4.293940 3.959960 24.790800 12.994500 -0.242716 -4.980390 89.453100 2.496070 -77.637500 -5.348130 -0.000001 -0.000004 -58.147700 7.853120 -4.463480 -24.328900 0.000322 -0.000009 -1.339030 -0.619299 -65.165400 -22.291500 -0.000108 -0.000004 8.721270 5.427380 -3.849720 -2.192480 -6.469440 -0.000000 177.665000 -4.162510 -51.570500 39.081100 -0.000007 -0.000012 0.166590 0.031498 100.703000 40.985400 -0.000006 -0.000013 -4.595720 -2.546090 -57.302600 11.754300 -0.000000 0.000003 0.002144 0.052670 -14.440300 -2.192510 6.469440 -0.000001 179.933000 0.269072 171.179000 -39.081100 -0.002282 -0.040193 -0.026346 0.036895 38.765400 -40.985400 0.000008 0.000006 -6.288800 3.915530 -78.780400 -11.754300 -0.000006 -0.000006 -0.010315 -0.105976 -20.891300
